<svg width="15" height="15" viewBox="0 0 15 15" fill="none" xmlns="http://www.w3.org/2000/svg">
<path d="M14.0625 0.947917C13.6562 0.541667 13 0.541667 12.5937 0.947917L7.5 6.03125L2.40625 0.9375C2 0.53125 1.34375 0.53125 0.9375 0.9375C0.53125 1.34375 0.53125 2 0.9375 2.40625L6.03125 7.5L0.9375 12.5937C0.53125 13 0.53125 13.6562 0.9375 14.0625C1.34375 14.4687 2 14.4687 2.40625 14.0625L7.5 8.96875L12.5937 14.0625C13 14.4687 13.6562 14.4687 14.0625 14.0625C14.4687 13.6562 14.4687 13 14.0625 12.5937L8.96875 7.5L14.0625 2.40625C14.4583 2.01042 14.4583 1.34375 14.0625 0.947917Z" fill="#93979C"/>
</svg>
